<?xml version="1.0" encoding="utf-8"?>
<!-- Generator: Adobe Illustrator 24.3.0, SVG Export Plug-In . SVG Version: 6.00 Build 0)  -->
<svg version="1.1" xmlns="http://www.w3.org/2000/svg" xmlns:xlink="http://www.w3.org/1999/xlink" x="0px" y="0px"
	 viewBox="0 0 800 800" style="enable-background:new 0 0 800 800;" xml:space="preserve">
<style type="text/css">
	.st0{fill:#BFCFD8;}
	.st1{fill:url(#SVGID_1_);}
	.st2{fill:#666F75;}
	.st3{fill:#9EAEB7;}
	.st4{fill:#4A5256;}
	.st5{fill:#34383A;}
	.st6{fill:#B53131;}
	.st7{fill:#F4D70B;}
	.st8{fill:#5B6366;}
	.st9{display:none;}
	.st10{opacity:0.39;fill:#1E1E1E;}
	.st11{fill:#DB7A19;stroke:#000000;stroke-width:3;stroke-miterlimit:10;}
	.st12{fill:#332F2C;}
	.st13{stroke:#000000;stroke-width:0.75;stroke-miterlimit:10;}
	.st14{fill:#F7931E;}
	.st15{fill:#F4F4F4;}
	.st16{fill:url(#SVGID_2_);}
	.st17{fill:url(#SVGID_3_);}
	.st18{fill:url(#SVGID_4_);}
	.st19{fill:url(#SVGID_5_);}
	.st20{fill:url(#SVGID_6_);}
	.st21{fill:url(#SVGID_7_);}
	.st22{fill:url(#SVGID_8_);}
	.st23{fill:url(#SVGID_9_);}
	.st24{fill:url(#SVGID_10_);}
	.st25{fill:url(#SVGID_11_);}
	.st26{fill:url(#SVGID_12_);}
	.st27{fill:#FFFFFF;stroke:#111111;stroke-width:2;stroke-miterlimit:10;}
	.st28{fill:#E2DEDC;stroke:#7A7A7A;stroke-width:0.5;stroke-miterlimit:10;}
	.st29{fill:#3F3F3F;}
	.st30{fill:#AFAFAF;}
	.st31{fill:#706E6D;}
	.st32{fill:url(#SVGID_13_);}
	.st33{opacity:0.36;fill:url(#SVGID_14_);}
	.st34{opacity:0.36;fill:url(#SVGID_15_);}
	.st35{fill:url(#SVGID_16_);}
	.st36{fill:url(#SVGID_17_);}
	.st37{fill:url(#SVGID_18_);}
	.st38{fill:url(#SVGID_19_);}
	.st39{fill:url(#SVGID_20_);}
	.st40{fill:url(#SVGID_21_);}
	.st41{fill:url(#SVGID_22_);}
</style>
<g id="Layer_1">
	<path class="st0" d="M519.8,119.3C472.1,25.6,349-7.6,244.9,45.4S94.9,217.3,142.6,311c0.5,1,1,1.9,1.5,2.9
		c11.6,21.7,10.5,47.9-3,68.5C97.1,449,86.3,527.6,119.6,593.2c54.6,107.3,206.7,139.5,339.8,71.9s196.8-209.5,142.3-316.9
		c-7.5-14.8-16.9-28.2-27.9-40.1c-25-27.2-37.3-63.5-35.5-100.4C539.9,177.6,534,147.4,519.8,119.3z"/>
	<linearGradient id="SVGID_1_" gradientUnits="userSpaceOnUse" x1="678.8094" y1="252.7856" x2="10.9305" y2="759.4422">
		<stop  offset="1.328495e-03" style="stop-color:#380036"/>
		<stop  offset="0.9534" style="stop-color:#0CBABA"/>
	</linearGradient>
	<path class="st1" d="M795.6,256.2c0-117.4-126.1-212.5-281.6-212.5s-281.6,95.1-281.6,212.5c0,1.2,0,2.4,0,3.6
		c0.6,27.5-16.4,53-44.9,66.6c-92.3,44-152.5,116.7-152.5,198.8c0,134.3,161.1,243.3,359.9,243.3s359.9-108.9,359.9-243.3
		c0-18.5-3.1-36.6-8.9-54c-13.3-39.7-6-82.1,18.4-117.8C784.4,324.4,795.6,291.3,795.6,256.2z"/>
</g>
<g id="Layer_2">
	<polygon class="st2" points="181.2,379.6 155.3,379.6 112.3,654.4 138.2,654.4 	"/>
	<polygon class="st3" points="166.9,379.6 141.1,379.6 98.1,654.4 123.9,654.4 	"/>
	<polygon class="st4" points="271.1,370.6 245.2,370.6 202.2,625.7 228.1,625.7 	"/>
	<polygon class="st2" points="260.2,370.6 234.3,370.6 191.3,625.7 217.2,625.7 	"/>
	<polygon class="st4" points="658.9,370.6 684.8,370.6 715.8,625.7 689.9,625.7 	"/>
	<polygon class="st2" points="648.7,370.6 674.6,370.6 705.6,625.7 679.7,625.7 	"/>
	<polygon class="st2" points="569.4,379.6 595.2,379.6 618.2,654.4 592.4,654.4 	"/>
	<polygon class="st3" points="553.1,379.6 578.9,379.6 599.9,654.4 574.1,654.4 	"/>
	<path class="st4" d="M689.1,382.6H580.3c-7,0-12.6-5.6-12.6-12.6v-9.5c0-7,5.6-12.6,12.6-12.6h108.8c7,0,12.6,5.6,12.6,12.6v9.5
		C701.7,377,696.1,382.6,689.1,382.6z"/>
	<path class="st3" d="M585.7,382.6H136c-4.7,0-8.5-3.8-8.5-8.5v-17.7c0-4.7,3.8-8.5,8.5-8.5h449.7c4.7,0,8.5,3.8,8.5,8.5v17.7
		C594.2,378.8,590.4,382.6,585.7,382.6z"/>
	<rect x="316" y="330.2" class="st4" width="217.7" height="17.7"/>
	<rect x="279.9" y="337.7" class="st2" width="211.6" height="10.2"/>
	<polygon class="st4" points="455,303.7 405.3,303.7 400.3,330.2 450,330.2 	"/>
	<path class="st4" d="M571.1,303.7H290.8c-5.4,0-9.9-4.4-9.9-9.9V135.5c0-5.4,4.4-9.9,9.9-9.9h280.3c5.4,0,9.9,4.4,9.9,9.9v158.4
		C580.9,299.3,576.5,303.7,571.1,303.7z"/>
	<path class="st2" d="M563.6,303.7h-283c-4.7,0-8.5-3.8-8.5-8.5V134.1c0-4.7,3.8-8.5,8.5-8.5h283c4.7,0,8.5,3.8,8.5,8.5v161.1
		C572.1,299.9,568.3,303.7,563.6,303.7z"/>
	<rect x="286.4" y="139.2" class="st5" width="274.7" height="149.5"/>
	<rect x="547.6" y="294.2" class="st6" width="13.5" height="3.9"/>
	<path class="st2" d="M566.6,333.6h-11.2c-7.9,0-14.3,6.4-14.3,14.3l0,0h39.8l0,0C580.9,340,574.5,333.6,566.6,333.6z"/>
</g>
<g id="Layer_3">
	<path class="st7" d="M402,174.7l-20,34.7c-5.2,9,1.3,20.2,11.6,20.2h40.1c10.3,0,16.8-11.2,11.6-20.2l-20-34.7
		C420.1,165.7,407.2,165.7,402,174.7z"/>
	<path class="st5" d="M406.1,179.7l-16.3,30.7c-3,5.7,1.1,12.6,7.6,12.6H430c6.5,0,10.6-6.9,7.6-12.6l-16.3-30.7
		C418,173.6,409.3,173.6,406.1,179.7z"/>
	<path class="st7" d="M413.7,211.1h-1.3c-0.9,0-1.7-0.7-1.7-1.6l-1.9-21.8c0-2.3,1.8-4.1,4.1-4.1l0,0c2.3,0,4.1,1.8,4.1,4.1
		l-1.6,21.8C415.4,210.4,414.7,211.1,413.7,211.1z"/>
	<path class="st7" d="M413.5,218.8h-0.6c-1.1,0-2-0.9-2-2V215c0-1.1,0.9-2,2-2h0.6c1.1,0,2,0.9,2,2v1.7
		C415.6,217.9,414.6,218.8,413.5,218.8z"/>
	<rect x="399" y="257.2" class="st8" width="14.2" height="2.6"/>
	<rect x="399" y="265.7" class="st8" width="14.2" height="2.6"/>
	<path class="st4" d="M398.4,275.1l-22.3-2c-2.9-0.3-5.1-2.7-5.1-5.6V258c0-2.9,2.2-5.3,5.1-5.6l22.3-2c3.3-0.3,6.1,2.3,6.1,5.6
		v13.5C404.6,272.8,401.7,275.4,398.4,275.1z"/>
	<path class="st4" d="M446,273.7h-17.1c-2.5,0-4.6-2.1-4.6-4.6v-12.6c0-2.5,2.1-4.6,4.6-4.6H446c2.5,0,4.6,2.1,4.6,4.6V269
		C450.7,271.6,448.6,273.7,446,273.7z"/>
	<path class="st4" d="M426.9,275.9h-2.5c-1.1,0-2-0.9-2-2v-22.3c0-1.1,0.9-2,2-2h2.5c1.1,0,2,0.9,2,2v22.3
		C428.9,275,428,275.9,426.9,275.9z"/>
	<rect x="448.6" y="261.6" class="st4" width="60" height="2.3"/>
	<rect x="314.7" y="261.6" class="st4" width="60" height="2.3"/>
</g>
<g id="Layer_4" class="st9">
	
		<image style="display:inline;overflow:visible;" width="1218" height="692" xlink:href="48B3FAE1.jpg"  transform="matrix(-0.3131 0 0 0.3131 540.9039 466.4871)">
	</image>
</g>
<g id="Layer_6">
	<ellipse class="st10" cx="364.9" cy="657" rx="165.1" ry="22.8"/>
</g>
<g id="Layer_5">
	<path class="st11" d="M486,570.1c0,0-27.8-17.2-47.5-5.2l-37.5-9.7c0,0-23.3-6.7-31.5-12.7c0,0-2-17.5-10.2-24.2
		c0,0-43-23.8-87.2-3c0,0-0.1,0-0.1,0.1c-24.8,9.4-42.3,32.5-42.3,59.4V587c-13.7-1.5-36-7-34.7-27c0,0-4.9-13.8,22.5-31
		c24.7-15.5,30.9-20.4,32.5-30.1c0.2-1,0.4-2.1,0.4-3.3c0-7.1-4.6-12.9-10.3-12.9c-5.7,0-10.3,5.8-10.3,12.9c0,0.4,0,0.8,0,1.1
		c-0.5,1.9-3.7,6.3-18.6,15.1c-21.6,12.7-37.6,20.8-34.9,55.1c2.4,30.6,37.4,35.7,53.8,37c3.3,30.5,30.9,51,63.8,52.8
		c12.7,4.6,31.7,6.1,59.6-1.7c0,0,37.3,9,63.5-2.2c0,0,43.1,5.6,56.5-7.5c0,0,32.3,5.3,41.6-6.7c0,0-1.4-7.8-17.4-17.5
		c0,0,7.2-11.6,3.6-24.2c0,0,14.2-5.2,16.6-11.2C517.8,585.7,519.7,576.8,486,570.1z"/>
	<path class="st12" d="M316.9,652.5c0,0,26.8-15.9,30-34.3c0,0,3.7-11.3,7.5,4.1c3.9,15.4-1.8,31.6-1.8,31.6s16-11.2,18.2-24.8
		c0,0,0.6-9,5.1-1.7c4.5,7.2-2.3,28.2-2.3,28.2s11.9-3,12.9-13.6c1-10.6,5.1-1,5.1-1s3.1,11.2,0,15.8
		C388.3,661.4,316.9,652.5,316.9,652.5z"/>
	<path class="st12" d="M360.1,520.9c0,0-8.9,13.7-13.2,31.8c0,0-1.1,11.8,8.5-0.8c9.6-12.6,8-8.7,8-8.7s4.2,9,0.8,22.4
		c0,0-3,8.5,4,3.6s14.4-18.1,14.4-18.1s10.4,6.3,7.1,16.4s4.3,2.9,4.3,2.9s11.2-12,6.2-14.5c-17.2-8.8-23.7-6.9-30.7-13.7
		c-1.9-1.8-2.1-6.4-3.3-9.9C363.8,524.9,360.1,520.9,360.1,520.9z"/>
	<path class="st11" d="M329.4,527.9c0,0,30.6-0.7,40.8-18.6c10.2-17.9-6.3-19-6.3-19s-9-1.1-28.6,9.3c0,0-17,7.7-41.3,8.7"/>
	<path class="st11" d="M314.1,629.1c0,0,46.6,13.3,43,32.9c0,0-4.2,15.2-63.4-6.7"/>
	<path class="st11" d="M393.9,631.1c0,0,18.6-4.4,29.9-33.8c0.6-1.5,1.7-2.9,3.2-3.6c2.6-1.3,6.7-1.1,10.2,9c1.5,4.2,2,8.7,1.2,13.1
		c-1.4,8.6-6.7,22.6-26,31.2"/>
	<path class="st11" d="M401.1,556.9c0,0,17.4-5.5,23.3-21.2s14.9-12.7,14.9-12.7s7.1,0,4.3,14.5s-9.8,34.1-9.8,34.1"/>
	<path class="st13" d="M474.5,588.8c0,0,0.2-4.8,3.8-7.6c0,0-10.6-3.7-11.5,2.9C466.7,584.2,465.8,588.9,474.5,588.8z"/>
	<path class="st13" d="M472.3,604.5c0,0,0.2,4.8,3.8,7.6c0,0-10.6,3.7-11.5-2.9C464.5,609.1,463.5,604.4,472.3,604.5z"/>
	<g>
		<path class="st14" d="M453.4,570.6L453.4,570.6c-0.5,0.1-1-0.2-1.1-0.7l-3.2-16.1c-0.1-0.5,0.2-1,0.8-1.1l0,0
			c0.5-0.1,1,0.2,1.1,0.7l3.2,16.1C454.3,570.1,454,570.5,453.4,570.6z"/>
		<path d="M450,552.7c-0.1,0-0.1,0-0.2,0c-0.5,0.1-0.9,0.6-0.8,1.1l3.2,16.1c0.1,0.4,0.5,0.8,1,0.8c0.1,0,0.1,0,0.2,0
			c0.5-0.1,0.9-0.6,0.8-1.1l-3.2-16.1C450.9,553,450.5,552.7,450,552.7L450,552.7z"/>
	</g>
	<g>
		<path class="st14" d="M457.6,639.5L457.6,639.5c-0.5,0.1-1-0.2-1.1-0.7l-3.2-16.1c-0.1-0.5,0.2-1,0.8-1.1l0,0
			c0.5-0.1,1,0.2,1.1,0.7l3.2,16.1C458.5,639,458.2,639.4,457.6,639.5z"/>
		<path d="M454.2,621.6c-0.1,0-0.1,0-0.2,0h0c-0.5,0.1-0.9,0.6-0.8,1.1l3.2,16.1c0.1,0.4,0.5,0.8,1,0.8c0.1,0,0.1,0,0.2,0
			c0.5-0.1,0.9-0.6,0.8-1.1l-3.2-16.1C455.1,621.9,454.7,621.6,454.2,621.6L454.2,621.6z"/>
	</g>
	<g>
		<path class="st14" d="M448.5,640L448.5,640c-0.5-0.1-0.9-0.5-0.8-1l2.2-16.3c0.1-0.5,0.6-0.9,1.1-0.8l0,0c0.5,0.1,0.9,0.5,0.8,1
			l-2.2,16.3C449.5,639.7,449,640.1,448.5,640z"/>
		<path d="M450.8,621.9c-0.5,0-0.9,0.3-1,0.8l-2.2,16.3c-0.1,0.5,0.3,1,0.8,1c0,0,0.1,0,0.1,0c0.5,0,0.9-0.3,1-0.8l2.2-16.3
			c0.1-0.5-0.3-1-0.8-1C450.9,621.9,450.8,621.9,450.8,621.9L450.8,621.9z"/>
	</g>
	<g>
		<path class="st14" d="M263.7,588.3L263.7,588.3c-0.3-0.4-0.1-1,0.4-1.3l9.3-5.1c0.5-0.3,1.1-0.1,1.3,0.3l0,0
			c0.3,0.4,0.1,1-0.4,1.3l-9.3,5.1C264.6,588.9,264,588.8,263.7,588.3z"/>
		<path d="M273.9,581.8c-0.2,0-0.3,0-0.5,0.1l-9.3,5.1c-0.5,0.3-0.6,0.8-0.4,1.3c0.2,0.3,0.5,0.5,0.9,0.5c0.2,0,0.3,0,0.5-0.1
			l9.3-5.1c0.5-0.3,0.6-0.8,0.4-1.3C274.5,582,274.2,581.8,273.9,581.8L273.9,581.8z"/>
	</g>
	<g>
		<path class="st14" d="M273.3,590L273.3,590c-0.4,0.3-1,0.3-1.4-0.1l-6.9-7.8c-0.3-0.4-0.3-1,0.1-1.3l0,0c0.4-0.3,1-0.3,1.4,0.1
			l6.9,7.8C273.8,589.1,273.8,589.7,273.3,590z"/>
		<path d="M265.8,580.5c-0.2,0-0.4,0.1-0.6,0.2c-0.4,0.3-0.5,0.9-0.1,1.3l6.9,7.8c0.2,0.2,0.5,0.3,0.8,0.3c0.2,0,0.4-0.1,0.6-0.2
			c0.4-0.3,0.5-0.9,0.1-1.3l-6.9-7.8C266.3,580.6,266.1,580.5,265.8,580.5L265.8,580.5z"/>
	</g>
	<g>
		<path class="st14" d="M467.6,636L467.6,636c-0.5,0.3-1.1,0.2-1.4-0.3l-9.3-13.8c-0.3-0.4-0.2-1,0.3-1.3l0,0
			c0.5-0.3,1.1-0.2,1.4,0.3l9.3,13.8C468.2,635.2,468.1,635.8,467.6,636z"/>
		<path d="M457.7,620.5c-0.2,0-0.4,0-0.5,0.1c-0.5,0.3-0.6,0.9-0.3,1.3l9.3,13.8c0.2,0.3,0.5,0.4,0.8,0.4c0.2,0,0.4,0,0.5-0.1
			c0.5-0.3,0.6-0.9,0.3-1.3l-9.3-13.8C458.4,620.7,458.1,620.5,457.7,620.5L457.7,620.5z"/>
	</g>
	<g>
		<path class="st14" d="M456.5,570.6L456.5,570.6c-0.5-0.1-0.9-0.6-0.8-1.1l3.5-16.1c0.1-0.5,0.6-0.8,1.2-0.7l0,0
			c0.5,0.1,0.9,0.6,0.8,1.1l-3.5,16.1C457.5,570.4,457,570.7,456.5,570.6z"/>
		<path d="M460.2,552.7c-0.5,0-0.9,0.3-1,0.7l-3.5,16.1c-0.1,0.5,0.2,1,0.8,1.1c0.1,0,0.1,0,0.2,0c0.5,0,0.9-0.3,1-0.7l3.5-16.1
			c0.1-0.5-0.2-1-0.8-1.1C460.3,552.7,460.3,552.7,460.2,552.7L460.2,552.7z"/>
	</g>
	<g>
		<path class="st14" d="M458.7,571.4L458.7,571.4c-0.5-0.3-0.6-0.9-0.3-1.3l9.5-13.7c0.3-0.4,0.9-0.5,1.4-0.3l0,0
			c0.5,0.3,0.6,0.9,0.3,1.3l-9.5,13.7C459.7,571.6,459.1,571.7,458.7,571.4z"/>
		<path d="M468.7,556c-0.3,0-0.6,0.1-0.8,0.4l-9.5,13.7c-0.3,0.4-0.2,1,0.3,1.3c0.2,0.1,0.4,0.2,0.5,0.2c0.3,0,0.6-0.1,0.8-0.4
			l9.5-13.7c0.3-0.4,0.2-1-0.3-1.3C469.1,556.1,468.9,556,468.7,556L468.7,556z"/>
	</g>
	<path class="st11" d="M336.9,554.8c0,0,38.3,30.3-4.6,59.4"/>
	<path class="st15" d="M423.3,541.5c0,0,6.4,7.7,16.4,6.5c0,0,7.8-19.3,1.2-23C436,522.4,429.8,521.6,423.3,541.5z"/>
	<path class="st15" d="M418.1,612.1l3.2,3.4c2.5,2.6,5.7,4.5,9.2,5.4l4.7,1.2c0,0,5.8-11.6-1.8-24.4c0,0-3.5-6.5-7.6-1.3
		c-0.1,0.2-0.2,0.4-0.3,0.6C424.7,598.8,420.6,608.6,418.1,612.1z"/>
	<g>
		<g>
			
				<linearGradient id="SVGID_2_" gradientUnits="userSpaceOnUse" x1="381.9801" y1="576.4445" x2="381.9801" y2="567.3033" gradientTransform="matrix(0.5839 0.8118 -0.8118 0.5839 596.538 -139.1114)">
				<stop  offset="1.328772e-03" style="stop-color:#F79378"/>
				<stop  offset="0.9859" style="stop-color:#FFA790"/>
			</linearGradient>
			<path class="st16" d="M357.7,511.5c-3.8,2.6-2.6-1.9-4.9-4.9c-2.2-3-7.1-3.3-3.2-6s7.3-1.4,9.5,1.6
				C361.3,505.3,361.5,508.9,357.7,511.5z"/>
		</g>
		
			<linearGradient id="SVGID_3_" gradientUnits="userSpaceOnUse" x1="382.2153" y1="565.5633" x2="382.2153" y2="558.261" gradientTransform="matrix(0.5839 0.8118 -0.8118 0.5839 596.538 -139.1114)">
			<stop  offset="1.328772e-03" style="stop-color:#F79378"/>
			<stop  offset="0.9859" style="stop-color:#FFA790"/>
		</linearGradient>
		<path class="st17" d="M364.9,501.1c-1.7,1.1-3.6,1.3-4.4,0.2s0-2.8,1.6-3.9s3.6-1.3,4.4-0.2S366.6,500,364.9,501.1z"/>
		
			<linearGradient id="SVGID_4_" gradientUnits="userSpaceOnUse" x1="376.3153" y1="567.6839" x2="376.3153" y2="560.9868" gradientTransform="matrix(0.5839 0.8118 -0.8118 0.5839 596.538 -139.1114)">
			<stop  offset="1.328772e-03" style="stop-color:#F79378"/>
			<stop  offset="0.9859" style="stop-color:#FFA790"/>
		</linearGradient>
		<path class="st18" d="M360.3,496.8c-0.8,1.8-2.5,2.8-3.7,2.3c-1.2-0.5-1.5-2.4-0.6-4.2c0.8-1.8,2.5-2.8,3.7-2.3
			C360.8,493.2,361.1,495,360.3,496.8z"/>
		
			<linearGradient id="SVGID_5_" gradientUnits="userSpaceOnUse" x1="388.4305" y1="567.8533" x2="388.4305" y2="560.8604" gradientTransform="matrix(0.5839 0.8118 -0.8118 0.5839 596.538 -139.1114)">
			<stop  offset="1.328772e-03" style="stop-color:#F79378"/>
			<stop  offset="0.9859" style="stop-color:#FFA790"/>
		</linearGradient>
		<path class="st19" d="M365.7,508c-2,0.4-3.8-0.2-4.1-1.4c-0.3-1.2,1.1-2.5,3.1-3c2-0.4,3.8,0.2,4.1,1.4
			C369.1,506.2,367.7,507.5,365.7,508z"/>
	</g>
	<g>
		<g>
			
				<linearGradient id="SVGID_6_" gradientUnits="userSpaceOnUse" x1="529.4324" y1="687.9672" x2="529.4324" y2="679.4497" gradientTransform="matrix(-0.4549 0.8905 -0.8905 -0.4549 1188.7043 492.7793)">
				<stop  offset="1.328772e-03" style="stop-color:#F79378"/>
				<stop  offset="0.9859" style="stop-color:#FFA790"/>
			</linearGradient>
			<path class="st20" d="M334.3,658.1c-3.9-2,0.5-3,2.1-6.2s-0.1-7.4,3.7-5.4c3.9,2,4.3,5.5,2.7,8.7
				C341.2,658.4,338.2,660.1,334.3,658.1z"/>
		</g>
		
			<linearGradient id="SVGID_7_" gradientUnits="userSpaceOnUse" x1="529.492" y1="677.8117" x2="529.492" y2="670.9465" gradientTransform="matrix(-0.4549 0.8905 -0.8905 -0.4549 1188.7043 492.7793)">
			<stop  offset="1.328772e-03" style="stop-color:#F79378"/>
			<stop  offset="0.9859" style="stop-color:#FFA790"/>
		</linearGradient>
		<path class="st21" d="M346.3,659.5c-1.7-0.9-2.6-2.5-2.1-3.5c0.5-1.1,2.4-1.3,4-0.4c1.7,0.9,2.6,2.5,2.1,3.5
			C349.8,660.2,348,660.3,346.3,659.5z"/>
		
			<linearGradient id="SVGID_8_" gradientUnits="userSpaceOnUse" x1="523.8604" y1="679.7397" x2="523.8604" y2="673.4163" gradientTransform="matrix(-0.4549 0.8905 -0.8905 -0.4549 1188.7043 492.7793)">
			<stop  offset="1.328772e-03" style="stop-color:#F79378"/>
			<stop  offset="0.9859" style="stop-color:#FFA790"/>
		</linearGradient>
		<path class="st22" d="M348,653.7c-1.9,0.1-3.5-0.8-3.5-2s1.4-2.3,3.3-2.4s3.5,0.8,3.5,2C351.4,652.5,349.9,653.6,348,653.7z"/>
		
			<linearGradient id="SVGID_9_" gradientUnits="userSpaceOnUse" x1="535.4933" y1="680.0388" x2="535.4933" y2="673.4866" gradientTransform="matrix(-0.4549 0.8905 -0.8905 -0.4549 1188.7043 492.7793)">
			<stop  offset="1.328772e-03" style="stop-color:#F79378"/>
			<stop  offset="0.9859" style="stop-color:#FFA790"/>
		</linearGradient>
		<path class="st23" d="M340.8,663.2c-1.2-1.5-1.4-3.3-0.5-4.1c0.9-0.8,2.6-0.2,3.9,1.3s1.4,3.3,0.5,4.1S342,664.7,340.8,663.2z"/>
	</g>
	<linearGradient id="SVGID_10_" gradientUnits="userSpaceOnUse" x1="492.9131" y1="587.3991" x2="505.0698" y2="578.6555">
		<stop  offset="1.328772e-03" style="stop-color:#F79378"/>
		<stop  offset="0.9859" style="stop-color:#FFA790"/>
	</linearGradient>
	<path class="st24" d="M489.3,579.7c0,0,15.9,1.3,20.6,5.6c0,0-5.3,4.7-13.8,5.3C496.1,590.7,489.6,585,489.3,579.7z"/>
	<linearGradient id="SVGID_11_" gradientUnits="userSpaceOnUse" x1="484.4197" y1="642.4673" x2="500.9035" y2="630.6115">
		<stop  offset="1.328772e-03" style="stop-color:#F79378"/>
		<stop  offset="0.9859" style="stop-color:#FFA790"/>
	</linearGradient>
	<path class="st25" d="M482,639c0,0,5.3-9.1,10.6-10.7c0,0,9.1,1.1,12.4,8.2C504.9,636.5,496.3,642,482,639z"/>
	<linearGradient id="SVGID_12_" gradientUnits="userSpaceOnUse" x1="634.7273" y1="568.9025" x2="634.7273" y2="568.9025">
		<stop  offset="1.328772e-03" style="stop-color:#F79378"/>
		<stop  offset="0.9859" style="stop-color:#FFA790"/>
	</linearGradient>
	<path class="st26" d="M634.7,568.9"/>
	<path class="st27" d="M456.9,594c3-1.3,5-4.3,5-7.7c0-4.7-3.9-8.5-8.7-8.5c-4.8,0-8.7,3.8-8.7,8.5c0,3.3,1.9,6.1,4.7,7.5
		c-3,1.3-5,4.3-5,7.7c0,4.7,3.9,8.5,8.7,8.5c4.8,0,8.7-3.8,8.7-8.5C461.6,598.3,459.7,595.4,456.9,594z"/>
	<g>
		<path d="M460.5,600.2c-0.6,0-1.1-0.2-1.6-0.5l-2.7-3.5c-0.8-0.5-1.1-1.3-1.1-2.2c0.1-0.9,0.6-1.6,1.4-2l3.3-3.1
			c0.4-0.2,0.8-0.3,1.2-0.3c0.8,0,1.5,0.4,2.1,1c0.7,0.8,1.1,2,1,3.1l-0.3,3.9C463.8,598.6,462.3,600.2,460.5,600.2L460.5,600.2z"/>
		<path d="M461.1,588.7c0.8,0,1.5,0.3,2,1c0.7,0.8,1.1,1.9,1,3l-0.3,3.9c-0.2,1.9-1.6,3.5-3.3,3.5c-0.5,0-1-0.2-1.5-0.5l-2.7-3.5
			l0,0l0,0c-0.7-0.5-1.1-1.2-1-2c0.1-0.8,0.6-1.5,1.3-1.9l0,0l0,0l3.3-3.1C460.3,588.8,460.7,588.7,461.1,588.7 M461.1,588.5
			c-0.4,0-0.9,0.1-1.3,0.3l-3.3,3.1c-1.8,0.8-2,3.3-0.4,4.4l2.7,3.6c0.5,0.4,1.1,0.5,1.7,0.5c1.8,0,3.4-1.7,3.6-3.8l0.3-3.9
			C464.6,590.5,463,588.5,461.1,588.5L461.1,588.5z"/>
	</g>
</g>
<g id="Layer_7">
	<path class="st28" d="M538.3,444.9h-48c-3.3,0-6.1-2.7-6.1-6.1v-19.9c0-3.3,2.7-6.1,6.1-6.1h48c3.3,0,6.1,2.7,6.1,6.1v19.9
		C544.3,442.2,541.6,444.9,538.3,444.9z"/>
	<path class="st28" d="M536.1,440.7h-44.4c-1.6,0-2.9-1.3-2.9-2.9v-17.6c0-1.6,1.3-2.9,2.9-2.9h44.4c1.6,0,2.9,1.3,2.9,2.9v17.6
		C539.1,439.3,537.8,440.7,536.1,440.7z"/>
	<circle class="st28" cx="502.8" cy="428.9" r="7.6"/>
	<circle class="st28" cx="525.8" cy="428.9" r="7.6"/>
	<rect x="499.6" y="426" class="st29" width="1" height="5.8"/>
	<rect x="505" y="426" class="st29" width="1" height="5.8"/>
	<rect x="438.6" y="500.8" class="st30" width="1" height="12.8"/>
	<rect x="444" y="500.8" class="st30" width="1" height="12.8"/>
	<rect x="522.6" y="426" class="st29" width="1" height="5.8"/>
	<rect x="528" y="426" class="st29" width="1" height="5.8"/>
	<path class="st31" d="M447.2,505.1h-10.9c-1.3,0-2.4-1.1-2.4-2.4v-13.5c0-4.4,3.5-7.9,7.9-7.9l0,0c4.4,0,7.9,3.5,7.9,7.9v13.5
		C449.6,504,448.6,505.1,447.2,505.1z"/>
	<rect x="440.1" y="382.6" class="st31" width="3.2" height="101.9"/>
	<linearGradient id="SVGID_13_" gradientUnits="userSpaceOnUse" x1="599.2928" y1="319.2169" x2="657.174" y2="319.5926">
		<stop  offset="0" style="stop-color:#FFFFFF"/>
		<stop  offset="0.6888" style="stop-color:#858585"/>
		<stop  offset="1" style="stop-color:#F2F2F2"/>
	</linearGradient>
	<path class="st32" d="M631.6,306c-10,0-18.2,6-18.2,13.4c0,7.4,8.1,13.4,18.2,13.4c10,0,14.9-9.1,14.9-16.5
		C646.5,309,641.6,306,631.6,306z M631.8,329.2c-6.9,0-12.5-4.4-12.5-9.8c0-5.4,5.6-9.8,12.5-9.8c6.9,0,11.4,1.4,11.4,6.8
		C643.2,321.8,638.7,329.2,631.8,329.2z"/>
	
		<linearGradient id="SVGID_14_" gradientUnits="userSpaceOnUse" x1="597.6435" y1="275.8027" x2="650.1221" y2="276.1434" gradientTransform="matrix(0.9844 -0.1761 0.1761 0.9844 -40.4039 112.3103)">
		<stop  offset="0" style="stop-color:#FFFFFF"/>
		<stop  offset="0.6888" style="stop-color:#858585"/>
		<stop  offset="1" style="stop-color:#F2F2F2"/>
	</linearGradient>
	<path class="st33" d="M619.3,309.7c-1.1,0.7-2.6,0.3-3.3-0.8c-1.9-2.8-4.9-9.6,0.6-17.5c5.7-8.2,0.3-16.2-2.4-19.2
		c-1-1.1-3.2-2.6-2.4-3.8c11.4-17.7-2.6-24.2,15.5-30.2c8.8-2.9,11.3,27,2.4,41.2c0,0.1-0.1,0.2-0.1,0.2c-1,1.7-12.5,21.7-10,26.2
		C620.9,307.9,620.3,309.1,619.3,309.7z"/>
	
		<linearGradient id="SVGID_15_" gradientUnits="userSpaceOnUse" x1="595.6452" y1="292.5221" x2="645.8835" y2="292.8482" gradientTransform="matrix(0.9343 -0.3564 0.3564 0.9343 -63.079 234.8409)">
		<stop  offset="0" style="stop-color:#FFFFFF"/>
		<stop  offset="0.6888" style="stop-color:#858585"/>
		<stop  offset="1" style="stop-color:#F2F2F2"/>
	</linearGradient>
	<path class="st34" d="M624.7,320.5c-1,0.9-2.5,0.7-3.4-0.2c-2.4-2.4-6.6-8.5-2.7-17.3c4.1-9.1-2.7-15.9-5.9-18.5
		c-1.2-0.9-2.2-2.1-3-3.3c-4-6.3-13.5-23.7,5.5-25.9c22.3-2.6,14.7,31,14.2,33.3c0,0.1,0,0.2-0.1,0.2c-0.6,1.8-8.2,23.7-5,27.6
		C625.9,318.4,625.5,319.7,624.7,320.5z"/>
	<linearGradient id="SVGID_16_" gradientUnits="userSpaceOnUse" x1="592.2717" y1="323.2663" x2="643.92" y2="323.6015">
		<stop  offset="0" style="stop-color:#FFFFFF"/>
		<stop  offset="0.6888" style="stop-color:#858585"/>
		<stop  offset="1" style="stop-color:#F2F2F2"/>
	</linearGradient>
	<path class="st35" d="M626.2,347.4h-12.9c-3.6,0-6.5-2.8-6.7-6.4l-1.6-38.8c-0.1-1.5,1.1-2.7,2.6-2.7H632c1.5,0,2.6,1.2,2.6,2.7
		l-1.6,38.8C632.8,344.6,629.8,347.4,626.2,347.4z"/>
	<linearGradient id="SVGID_17_" gradientUnits="userSpaceOnUse" x1="212.7877" y1="298.9365" x2="193.2171" y2="315.4711">
		<stop  offset="0" style="stop-color:#22B573"/>
		<stop  offset="1" style="stop-color:#006837"/>
	</linearGradient>
	<path class="st36" d="M196,323.3c0,0-5.8-15.8,6.2-29.2c0,0,9.4,8.9,0,27.4L196,323.3z"/>
	<linearGradient id="SVGID_18_" gradientUnits="userSpaceOnUse" x1="216.2867" y1="322.8246" x2="206.9003" y2="313.2895">
		<stop  offset="0" style="stop-color:#22B573"/>
		<stop  offset="1" style="stop-color:#006837"/>
	</linearGradient>
	<path class="st37" d="M200.5,324.7c0,0,0.9-14.9,14.2-21.4c0,0,5.7,11.1-10.7,21.4H200.5z"/>
	<linearGradient id="SVGID_19_" gradientUnits="userSpaceOnUse" x1="209.3961" y1="331.5966" x2="188.9641" y2="310.8409">
		<stop  offset="0" style="stop-color:#22B573"/>
		<stop  offset="1" style="stop-color:#006837"/>
	</linearGradient>
	<path class="st38" d="M197.1,324c0,0-11.5-3.8-10.3-20.1c0,0,8.6,1.7,11.8,17.7L197.1,324z"/>
	<linearGradient id="SVGID_20_" gradientUnits="userSpaceOnUse" x1="216.1905" y1="332.3354" x2="193.8165" y2="309.607">
		<stop  offset="0" style="stop-color:#22B573"/>
		<stop  offset="1" style="stop-color:#006837"/>
	</linearGradient>
	<path class="st39" d="M197.3,323.5c0,0-7.3-12-3.5-23.7c0,0,12.6,7.9,9.5,23.7H197.3z"/>
	<linearGradient id="SVGID_21_" gradientUnits="userSpaceOnUse" x1="238.2374" y1="364.6764" x2="200.3391" y2="326.1778">
		<stop  offset="0" style="stop-color:#FFFFFF"/>
		<stop  offset="0.4406" style="stop-color:#858585"/>
		<stop  offset="1" style="stop-color:#F2F2F2"/>
	</linearGradient>
	<polygon class="st40" points="218.2,347.9 193.2,347.9 190.8,318.9 221.7,318.9 	"/>
	<linearGradient id="SVGID_22_" gradientUnits="userSpaceOnUse" x1="202.7452" y1="323.5896" x2="169.2067" y2="352.2362">
		<stop  offset="0" style="stop-color:#FFFFFF"/>
		<stop  offset="0.6888" style="stop-color:#858585"/>
	</linearGradient>
	<polygon class="st41" points="203.8,347.9 181.1,347.9 178.8,318.9 203.8,318.9 	"/>
</g>
</svg>
