<svg xmlns="http://www.w3.org/2000/svg" xmlns:xlink="http://www.w3.org/1999/xlink" width="900" zoomAndPan="magnify" viewBox="0 0 675 225" height="300" preserveAspectRatio="xMidYMid meet" version="1.0"><path fill="#380036" d="M 114.417969 148.929688 C 114.234375 144.664062 114.046875 140.402344 114.046875 136.046875 C 113.957031 131.691406 113.957031 128.171875 113.957031 125.390625 L 113.957031 11.128906 L 93.925781 11.128906 L 93.554688 12.796875 C 94.109375 15.207031 94.480469 18.542969 94.667969 22.804688 C 94.851562 27.066406 95.039062 31.332031 95.039062 35.6875 C 95.132812 40.042969 95.132812 43.5625 95.132812 46.34375 L 95.132812 55.238281 C 93.460938 54.683594 91.609375 54.3125 89.476562 53.847656 C 85.765625 53.199219 81.5 52.832031 76.679688 52.832031 C 64.992188 52.832031 54.699219 55.148438 45.796875 59.6875 C 36.988281 64.230469 30.035156 70.808594 25.210938 79.425781 C 20.296875 88.042969 17.886719 98.332031 17.886719 110.46875 C 17.886719 122.609375 20.113281 132.988281 24.5625 141.699219 C 29.015625 150.410156 35.414062 157.082031 43.945312 161.808594 C 52.476562 166.535156 62.859375 168.851562 75.101562 168.851562 C 82.890625 168.851562 90.03125 168.019531 96.613281 166.441406 C 103.199219 164.773438 109.410156 162.921875 115.066406 160.695312 L 115.4375 159.027344 C 115.066406 156.433594 114.699219 153.097656 114.417969 148.929688 Z M 76.769531 152.355469 C 68.148438 152.355469 61.007812 150.875 55.164062 147.910156 C 49.320312 144.945312 44.871094 140.308594 41.8125 134.101562 C 38.75 127.890625 37.175781 120.015625 37.175781 110.285156 C 37.175781 96.941406 40.699219 86.746094 47.652344 79.703125 C 54.699219 72.660156 64.808594 69.046875 77.976562 69.046875 C 82.984375 69.046875 87.15625 69.511719 90.496094 70.34375 C 92.257812 70.808594 93.832031 71.269531 95.132812 71.734375 L 95.132812 135.214844 C 95.132812 138.640625 95.222656 141.886719 95.503906 145.128906 C 95.59375 146.613281 95.78125 148 95.964844 149.300781 C 94.019531 149.949219 91.886719 150.597656 89.660156 151.058594 C 85.859375 151.984375 81.5 152.355469 76.769531 152.355469 Z M 76.769531 152.355469 " fill-opacity="1" fill-rule="nonzero"/><path fill="#380036" d="M 219.855469 149.761719 C 219.667969 145.59375 219.484375 141.238281 219.484375 136.882812 C 219.390625 132.527344 219.390625 129.003906 219.390625 126.222656 L 219.390625 55.148438 L 199.359375 55.148438 L 198.988281 56.816406 C 199.546875 59.222656 199.917969 62.558594 200.101562 66.824219 C 200.289062 71.085938 200.472656 75.347656 200.472656 79.703125 C 200.566406 84.058594 200.566406 87.582031 200.566406 90.359375 L 200.566406 137.714844 C 200.566406 140.679688 200.660156 143.644531 200.75 146.519531 C 200.84375 147.722656 200.9375 148.835938 201.03125 149.855469 C 198.617188 150.410156 196.113281 150.875 193.332031 151.335938 C 188.789062 152.078125 184.339844 152.449219 179.980469 152.449219 C 172.746094 152.449219 166.625 151.523438 161.527344 149.667969 C 156.425781 147.816406 152.53125 144.480469 149.84375 139.660156 C 147.152344 134.84375 145.855469 127.890625 145.855469 118.902344 L 145.855469 55.238281 L 125.824219 55.238281 L 125.453125 56.90625 C 126.011719 59.316406 126.382812 62.652344 126.566406 66.914062 C 126.753906 71.179688 126.9375 75.441406 126.9375 79.796875 C 127.03125 84.152344 127.03125 87.675781 127.03125 90.453125 L 127.03125 120.570312 C 127.03125 130.117188 128.328125 137.992188 130.925781 144.203125 C 133.523438 150.503906 137.046875 155.414062 141.683594 159.027344 C 146.226562 162.644531 151.605469 165.144531 157.816406 166.628906 C 164.03125 168.019531 170.613281 168.757812 177.753906 168.757812 C 181.277344 168.757812 185.730469 168.390625 191.109375 167.738281 C 196.484375 167.089844 201.863281 166.164062 207.242188 165.050781 C 212.621094 163.941406 217.070312 162.734375 220.597656 161.347656 L 220.96875 159.679688 C 220.503906 157.269531 220.039062 153.933594 219.855469 149.761719 Z M 219.855469 149.761719 " fill-opacity="1" fill-rule="nonzero"/><path fill="#380036" d="M 324.824219 86.003906 C 322.230469 78.964844 318.519531 72.9375 313.605469 67.933594 C 308.691406 62.929688 302.847656 59.222656 295.894531 56.628906 C 289.03125 54.035156 281.335938 52.738281 272.710938 52.738281 C 265.757812 52.738281 258.617188 53.480469 251.382812 54.960938 C 244.058594 56.445312 237.472656 58.390625 231.445312 60.890625 L 231.074219 62.558594 C 231.632812 64.96875 232 68.304688 232.1875 72.570312 C 232.371094 76.832031 232.558594 81 232.558594 85.265625 C 232.652344 89.527344 232.652344 92.863281 232.652344 95.273438 L 232.652344 213.703125 L 251.476562 213.703125 L 251.476562 166.164062 C 253.238281 166.535156 255.371094 167 257.6875 167.460938 C 261.859375 168.390625 266.035156 168.757812 270.207031 168.757812 C 279.203125 168.757812 287.269531 167.460938 294.503906 164.773438 C 301.734375 162.085938 307.855469 158.289062 312.863281 153.285156 C 317.871094 148.28125 321.765625 142.164062 324.546875 134.933594 C 327.238281 127.707031 328.628906 119.550781 328.628906 110.46875 C 328.71875 101.203125 327.421875 93.140625 324.824219 86.003906 Z M 299.695312 141.605469 C 293.203125 148.835938 283.375 152.449219 270.300781 152.449219 C 264.457031 152.449219 259.820312 152.078125 256.484375 151.246094 C 254.535156 150.78125 252.867188 150.226562 251.476562 149.761719 L 251.476562 85.542969 C 251.476562 82.390625 251.382812 79.332031 251.195312 76.367188 C 251.105469 75.070312 251.011719 73.957031 250.917969 72.847656 C 252.960938 72.105469 255.183594 71.363281 257.78125 70.714844 C 262.046875 69.695312 266.496094 69.140625 271.132812 69.140625 C 283.375 69.140625 292.832031 72.570312 299.511719 79.425781 C 306.1875 86.285156 309.523438 96.570312 309.523438 110.378906 C 309.433594 123.90625 306.1875 134.378906 299.695312 141.605469 Z M 299.695312 141.605469 " fill-opacity="1" fill-rule="nonzero"/><path fill="#380036" d="M 341.703125 166.257812 L 341.703125 46.25 C 341.703125 43.5625 341.703125 39.949219 341.609375 35.59375 C 341.515625 31.238281 341.425781 26.976562 341.238281 22.710938 C 341.054688 18.542969 340.683594 15.207031 340.125 12.703125 L 340.496094 11.035156 L 360.527344 11.035156 L 360.527344 166.164062 L 341.703125 166.164062 Z M 341.703125 166.257812 " fill-opacity="1" fill-rule="nonzero"/><path fill="#0cbaba" d="M 551.367188 149.761719 C 551.179688 145.59375 550.996094 141.238281 550.996094 136.882812 C 550.902344 132.527344 550.902344 129.003906 550.902344 126.222656 L 550.902344 55.148438 L 530.875 55.148438 L 530.503906 56.816406 C 531.058594 59.222656 531.429688 62.558594 531.613281 66.824219 C 531.800781 71.085938 531.984375 75.347656 531.984375 79.703125 C 532.078125 84.058594 532.078125 87.582031 532.078125 90.359375 L 532.078125 137.714844 C 532.078125 140.679688 532.171875 143.644531 532.265625 146.519531 C 532.355469 147.722656 532.449219 148.835938 532.542969 149.855469 C 530.132812 150.410156 527.628906 150.875 524.847656 151.335938 C 520.300781 152.078125 515.851562 152.449219 511.492188 152.449219 C 504.257812 152.449219 498.140625 151.523438 493.039062 149.667969 C 487.9375 147.816406 484.042969 144.480469 481.355469 139.660156 C 478.664062 134.84375 477.367188 127.890625 477.367188 118.902344 L 477.367188 55.238281 L 457.335938 55.238281 L 456.96875 56.90625 C 457.523438 59.316406 457.894531 62.652344 458.078125 66.914062 C 458.265625 71.179688 458.449219 75.441406 458.449219 79.796875 C 458.542969 84.152344 458.542969 87.675781 458.542969 90.453125 L 458.542969 120.570312 C 458.542969 130.117188 459.839844 137.992188 462.4375 144.203125 C 465.035156 150.503906 468.558594 155.414062 473.195312 159.027344 C 477.738281 162.644531 483.117188 165.144531 489.328125 166.628906 C 495.542969 168.019531 502.125 168.757812 509.265625 168.757812 C 512.789062 168.757812 517.242188 168.390625 522.621094 167.738281 C 528 167.089844 533.378906 166.164062 538.753906 165.050781 C 544.132812 163.941406 548.585938 162.734375 552.109375 161.347656 L 552.480469 159.679688 C 551.921875 157.269531 551.550781 153.933594 551.367188 149.761719 Z M 551.367188 149.761719 " fill-opacity="1" fill-rule="nonzero"/><path fill="#0cbaba" d="M 656.894531 55.238281 L 637.328125 55.238281 L 607.65625 97.683594 L 576.867188 55.238281 L 556.46875 55.238281 L 556.46875 56.90625 L 596.804688 112.601562 L 558.042969 164.683594 C 557.765625 165.238281 558.136719 165.792969 558.691406 165.886719 C 560.363281 166.164062 562.957031 166.257812 563.792969 166.257812 L 577.703125 166.257812 L 606.171875 125.574219 L 635.660156 166.257812 L 648.917969 166.257812 C 649.289062 166.257812 649.753906 166.257812 650.125 166.164062 L 652.445312 165.703125 C 654.945312 165.144531 655.875 163.292969 654.667969 161.53125 L 652.722656 158.660156 L 616.925781 110.5625 L 656.894531 56.816406 Z M 656.894531 55.238281 " fill-opacity="1" fill-rule="nonzero"/><path fill="#380036" d="M 455.390625 164.3125 C 454.925781 162.085938 455.019531 164.589844 452.886719 158.101562 C 449.640625 148.1875 446.582031 135.492188 447.230469 126.132812 C 447.414062 123.351562 445.5625 120.941406 442.777344 121.3125 C 439.441406 121.683594 435.269531 122.703125 432.578125 125.019531 C 432.023438 125.484375 431.742188 126.132812 431.742188 126.78125 L 434.710938 148 L 389.089844 148 C 389.179688 143.367188 390.570312 139.382812 393.355469 136.046875 C 396.226562 132.617188 400.957031 130.023438 407.726562 128.261719 L 414.21875 126.59375 C 423.863281 123.816406 431.464844 119.460938 436.9375 113.527344 C 442.5 107.597656 445.28125 99.535156 445.28125 89.433594 C 445.28125 82.578125 443.800781 76.460938 440.738281 70.902344 C 437.773438 65.339844 433.042969 60.984375 426.644531 57.742188 C 420.246094 54.5 411.992188 52.832031 401.792969 52.832031 C 395.949219 52.832031 390.570312 53.386719 385.472656 54.40625 C 380.371094 55.425781 376.292969 56.722656 373.230469 58.113281 L 373.230469 76.738281 L 374.621094 76.738281 C 376.476562 75.8125 378.703125 74.886719 381.390625 74.050781 C 383.988281 73.21875 386.863281 72.476562 390.015625 71.921875 C 393.074219 71.363281 396.320312 71.179688 399.660156 71.179688 C 407.914062 71.179688 414.125 72.847656 418.113281 76.183594 C 422.191406 79.519531 424.140625 84.058594 424.140625 89.804688 C 424.140625 95.367188 422.75 99.8125 420.058594 103.058594 C 417.371094 106.300781 413.105469 108.710938 407.355469 110.285156 L 400.402344 112.136719 C 392.613281 114.175781 386.398438 117.144531 381.761719 120.941406 C 377.125 124.742188 373.789062 129.097656 371.746094 134.195312 C 369.707031 139.289062 368.6875 144.757812 368.6875 150.78125 C 368.6875 153.097656 368.871094 155.785156 369.242188 158.9375 C 369.613281 162.085938 370.261719 164.589844 371.191406 166.441406 L 447.230469 166.441406 C 451.867188 166.164062 455.667969 165.421875 455.390625 164.3125 Z M 455.390625 164.3125 " fill-opacity="1" fill-rule="nonzero"/></svg>